{"title":"the walking dead 2010 complete S2 1080p dts MultiSubs [Request]","uid":7824353,"size":47226480699,"categoryP":"video","categoryS":"hd___tv_shows","magnet":"?xt=urn:btih:1546bc93dfda6be80f9dd5d3b1a5f241cbc26979&amp;dn=the+walking+dead+2010+complete+S2+1080p+dts+MultiSubs+%5BRequest%5D&amp;tr=udp%3A%2F%2Ftracker.openbittorrent.com%3A80&amp;tr=udp%3A%2F%2Fopen.demonii.com%3A1337&amp;tr=udp%3A%2F%2Ftracker.coppersurfer.tk%3A6969&amp;tr=udp%3A%2F%2Fexodus.desync.com%3A6969","seeders":2,"leechers":1,"uploader":"NLUPPER002","files":-1,"time":1352898216,"description":"the walking dead 2010 complete S2 1080p dts MultiSubs [Request]\n.\nUser Request: Enjoy it.\n.\n[IMG]http://i.imgur.com/TS5mE.jpg[/IMG]\n.\nTV Series - tv14 -  Drama | Horror | Thriller\n. &lt;a href=&quot;\nhttp://www.imdb.com/title/tt1520211/&quot; rel=&quot;nofollow&quot; target=&quot;_NEW&quot;&gt;\nhttp://www.imdb.com/title/tt1520211/&lt;/a&gt;\n.\nPolice officer Rick Grimes leads a group of survivors in a world overrun by zombies. \n.\nSource: Nordic Bluray 3x BD50\nFormat: MKV\nVideo: 1080p\nAudio: DTS-ES 1510kbps, AC3 640kbps.\nSubtitles: Dutch, Swedish, Norwegian, Danish, Finnish.\nNL Vertaling: PinkGaai\n.\nEnjoy\n.\nINFO From 1ste epi\n\nVideo\nFormat                                   : AVC\nFormat/Info                              : Advanced Video Codec\nFormat profile                           : &lt;a class=&quot;__cf_email__&quot; href=&quot;/cdn-cgi/l/email-protection&quot; data-cfemail=&quot;652d0c020d2529514b54&quot;&gt;[email&amp;#160;protected]&lt;/a&gt;&lt;script cf-hash='f9e31' type=&quot;text/javascript&quot;&gt;\n/* &lt;![CDATA[ */!function(){try{var t=&quot;currentScript&quot;in document?document.currentScript:function(){for(var t=document.getElementsByTagName(&quot;script&quot;),e=t.length;e--;)if(t[e].getAttribute(&quot;cf-hash&quot;))return t[e]}();if(t&amp;&amp;t.previousSibling){var e,r,n,i,c=t.previousSibling,a=c.getAttribute(&quot;data-cfemail&quot;);if(a){for(e=&quot;&quot;,r=parseInt(a.substr(0,2),16),n=2;a.length-n;n+=2)i=parseInt(a.substr(n,2),16)^r,e+=String.fromCharCode(i);e=document.createTextNode(e),c.parentNode.replaceChild(e,c)}}}catch(u){}}();/* ]]&gt; */&lt;/script&gt;\nFormat settings, CABAC                   : Yes\nFormat settings, ReFrames                : 4 frames\nCodec ID                                 : V_MPEG4/ISO/AVC\nBit rate                                 : 9 512 Kbps\nWidth                                    : 1 920 pixels\nHeight                                   : 1 080 pixels\nDisplay aspect ratio                     : 16:9\nFrame rate mode                          : Variable\nOriginal frame rate                      : 23.976 fps\nColor space                              : YUV\nChroma subsampling                       : 4:2:0\nBit depth                                : 8 bits\nScan type                                : Progressive\nBits/(Pixel*Frame)                       : 0.191\nWriting library                          : x264 core 125 r2200 999b753\nLanguage                                 : English\nDefault                                  : Yes\nForced                                   : No\n\nAudio #1\nID                                       : 2\nFormat                                   : DTS\nFormat/Info                              : Digital Theater Systems\nFormat profile                           : ES\nCodec ID                                 : A_DTS\nDuration                                 : 1h 2mn\nBit rate mode                            : Constant\nBit rate                                 : 1 510 Kbps\nChannel(s)                               : 6 channels\nChannel positions                        : Front: L C R, Side: L R, LFE\nSampling rate                            : 48.0 KHz\nBit depth                                : 24 bits\nCompression mode                         : Lossy\nStream size                              : 677 MiB (13%)\nTitle                                    : DTS\nLanguage                                 : English\nDefault                                  : Yes\n\nAudio #2\nFormat                                   : AC-3\nFormat/Info                              : Audio Coding 3\nMode extension                           : CM (complete main)\nFormat settings, Endianness              : Big\nCodec ID                                 : A_AC3\nDuration                                 : 1h 2mn\nBit rate mode                            : Constant\nBit rate                                 : 640 Kbps\nChannel(s)                               : 6 channels\nChannel positions                        : Front: L C R, Side: L R, LFE\nSampling rate                            : 48.0 KHz\nBit depth                                : 16 bits\nCompression mode                         : Lossy\nStream size                              : 287 MiB (5%)\nTitle                                    : AC3 640kbps\nLanguage                                 : English\nDefault                                  : No","torrent":{"xt":"urn:btih:1546bc93dfda6be80f9dd5d3b1a5f241cbc26979","amp;dn":"the+walking+dead+2010+complete+S2+1080p+dts+MultiSubs+%5BRequest%5D","amp;tr":["udp%3A%2F%2Ftracker.openbittorrent.com%3A80","udp%3A%2F%2Fopen.demonii.com%3A1337","udp%3A%2F%2Ftracker.coppersurfer.tk%3A6969","udp%3A%2F%2Fexodus.desync.com%3A6969"],"infoHash":"1546bc93dfda6be80f9dd5d3b1a5f241cbc26979","infoHashBuffer":{"type":"Buffer","data":[21,70,188,147,223,218,107,232,15,157,213,211,177,165,242,65,203,194,105,121]},"announce":[],"urlList":[]}}